<mxfile host="app.diagrams.net" modified="2024-03-09T05:35:33.338Z" agent="Mozilla/5.0 (Macintosh; Intel Mac OS X 10_15_7) AppleWebKit/537.36 (KHTML, like Gecko) Chrome/122.0.0.0 Safari/537.36" version="24.0.2" etag="pKxuMHSVJ_ShJ1xUV9a-" type="github">
  <diagram name="페이지-1" id="bVwKme7671T3SDIS964Z">
    <mxGraphModel>
      <root>
        <mxCell id="0" />
        <mxCell id="1" parent="0" />
      </root>
    </mxGraphModel>
  </diagram>
</mxfile>
